<?xml version="1.0" encoding="UTF-8"?>
<svg version="1.1" xmlns="http://www.w3.org/2000/svg" width="24" height="24">
<path d="M0 0 C1.64574566 -0.02688151 3.29161413 -0.04634123 4.9375 -0.0625 C5.85402344 -0.07410156 6.77054688 -0.08570313 7.71484375 -0.09765625 C10 0 10 0 11 1 C11.27314815 6.73611111 11.27314815 6.73611111 11 9 C9 11 9 11 7.08984375 11.23046875 C1.11111111 11.11111111 1.11111111 11.11111111 0 10 C-0.07205511 8.31391034 -0.08386068 6.62499341 -0.0625 4.9375 C-0.05347656 4.01839844 -0.04445313 3.09929688 -0.03515625 2.15234375 C-0.02355469 1.44207031 -0.01195312 0.73179688 0 0 Z M2 2 C2 3.98 2 5.96 2 8 C3.98 8 5.96 8 8 8 C8 6.02 8 4.04 8 2 C6.02 2 4.04 2 2 2 Z " fill="#0ABCD5" transform="translate(13,13)"/>
<path d="M0 0 C1.37478516 0.01740234 1.37478516 0.01740234 2.77734375 0.03515625 C3.69644531 0.04417969 4.61554687 0.05320312 5.5625 0.0625 C6.27277344 0.07410156 6.98304687 0.08570313 7.71484375 0.09765625 C7.74172526 1.74340191 7.76118498 3.38927038 7.77734375 5.03515625 C7.78894531 5.95167969 7.80054688 6.86820313 7.8125 7.8125 C7.71484375 10.09765625 7.71484375 10.09765625 6.71484375 11.09765625 C0.97873264 11.3708044 0.97873264 11.3708044 -1.28515625 11.09765625 C-3.28515625 9.09765625 -3.28515625 9.09765625 -3.515625 7.1875 C-3.37501528 0.14423142 -3.37501528 0.14423142 0 0 Z M-0.28515625 2.09765625 C-0.28515625 4.07765625 -0.28515625 6.05765625 -0.28515625 8.09765625 C1.69484375 8.09765625 3.67484375 8.09765625 5.71484375 8.09765625 C5.71484375 6.11765625 5.71484375 4.13765625 5.71484375 2.09765625 C3.73484375 2.09765625 1.75484375 2.09765625 -0.28515625 2.09765625 Z " fill="#0ABCD6" transform="translate(3.28515625,12.90234375)"/>
<path d="M0 0 C1.91015625 0.23046875 1.91015625 0.23046875 3.91015625 2.23046875 C4.23767859 4.94501831 4.04099875 7.48277634 3.91015625 10.23046875 C2.91015625 11.23046875 2.91015625 11.23046875 0.625 11.328125 C-0.74978516 11.31072266 -0.74978516 11.31072266 -2.15234375 11.29296875 C-3.07144531 11.28394531 -3.99054687 11.27492188 -4.9375 11.265625 C-5.64777344 11.25402344 -6.35804687 11.24242187 -7.08984375 11.23046875 C-7.11672526 9.58472309 -7.13618498 7.93885462 -7.15234375 6.29296875 C-7.16394531 5.37644531 -7.17554688 4.45992188 -7.1875 3.515625 C-6.98929478 -1.12237713 -3.96757672 0.07920752 0 0 Z M-5.08984375 3.23046875 C-5.08984375 5.21046875 -5.08984375 7.19046875 -5.08984375 9.23046875 C-3.10984375 9.23046875 -1.12984375 9.23046875 0.91015625 9.23046875 C0.91015625 7.25046875 0.91015625 5.27046875 0.91015625 3.23046875 C-1.06984375 3.23046875 -3.04984375 3.23046875 -5.08984375 3.23046875 Z " fill="#0ABCD5" transform="translate(20.08984375,-0.23046875)"/>
<path d="M0 0 C5.97873264 0.11935764 5.97873264 0.11935764 7.08984375 1.23046875 C7.16189886 2.91655841 7.17370443 4.60547534 7.15234375 6.29296875 C7.14332031 7.21207031 7.13429688 8.13117187 7.125 9.078125 C7.11339844 9.78839844 7.10179687 10.49867187 7.08984375 11.23046875 C5.44409809 11.25735026 3.79822962 11.27680998 2.15234375 11.29296875 C1.23582031 11.30457031 0.31929688 11.31617188 -0.625 11.328125 C-2.91015625 11.23046875 -2.91015625 11.23046875 -3.91015625 10.23046875 C-4.1833044 4.49435764 -4.1833044 4.49435764 -3.91015625 2.23046875 C-1.91015625 0.23046875 -1.91015625 0.23046875 0 0 Z M-0.91015625 3.23046875 C-0.91015625 5.21046875 -0.91015625 7.19046875 -0.91015625 9.23046875 C1.06984375 9.23046875 3.04984375 9.23046875 5.08984375 9.23046875 C5.08984375 7.25046875 5.08984375 5.27046875 5.08984375 3.23046875 C3.10984375 3.23046875 1.12984375 3.23046875 -0.91015625 3.23046875 Z " fill="#0ABCD6" transform="translate(3.91015625,-0.23046875)"/>
</svg>
